<mxfile host="app.diagrams.net" modified="2024-02-05T06:35:07.250Z" agent="Mozilla/5.0 (Windows NT 10.0; Win64; x64) AppleWebKit/537.36 (KHTML, like Gecko) Chrome/121.0.0.0 Safari/537.36 Edg/121.0.0.0" etag="MC0nFAd2NZ4VTCwEAVcV" version="23.0.2" type="device">
  <diagram name="Page-1" id="Jopj-Ak8AMZtnkVz11V4">
    <mxGraphModel dx="1389" dy="906" grid="1" gridSize="10" guides="1" tooltips="1" connect="1" arrows="1" fold="1" page="1" pageScale="1" pageWidth="827" pageHeight="1169" math="0" shadow="0">
      <root>
        <mxCell id="0" />
        <mxCell id="1" parent="0" />
        <mxCell id="yGx-_mgUBLTscShHxS1o-29" value="" style="group" vertex="1" connectable="0" parent="1">
          <mxGeometry x="20" y="200" width="630" height="460" as="geometry" />
        </mxCell>
        <mxCell id="yGx-_mgUBLTscShHxS1o-13" value="" style="shape=cube;whiteSpace=wrap;html=1;boundedLbl=1;backgroundOutline=1;darkOpacity=0.05;darkOpacity2=0.1;flipH=1;size=90;fillColor=#d5e8d4;strokeColor=#82b366;fillStyle=hatch;strokeWidth=2;" vertex="1" parent="yGx-_mgUBLTscShHxS1o-29">
          <mxGeometry x="40" y="35" width="90" height="360" as="geometry" />
        </mxCell>
        <mxCell id="yGx-_mgUBLTscShHxS1o-1" value="" style="shape=cube;whiteSpace=wrap;html=1;boundedLbl=1;backgroundOutline=1;darkOpacity=0.05;darkOpacity2=0.1;flipH=1;size=10;fillColor=#d5e8d4;strokeColor=#82b366;" vertex="1" parent="yGx-_mgUBLTscShHxS1o-29">
          <mxGeometry x="170" width="30" height="430" as="geometry" />
        </mxCell>
        <mxCell id="yGx-_mgUBLTscShHxS1o-2" value="" style="shape=cube;whiteSpace=wrap;html=1;boundedLbl=1;backgroundOutline=1;darkOpacity=0.05;darkOpacity2=0.1;flipH=1;size=10;fillColor=#e1d5e7;strokeColor=#9673a6;" vertex="1" parent="yGx-_mgUBLTscShHxS1o-29">
          <mxGeometry x="260" y="125" width="30" height="180" as="geometry" />
        </mxCell>
        <mxCell id="yGx-_mgUBLTscShHxS1o-3" value="" style="shape=cube;whiteSpace=wrap;html=1;boundedLbl=1;backgroundOutline=1;darkOpacity=0.05;darkOpacity2=0.1;flipH=1;size=10;fillColor=#e1d5e7;strokeColor=#9673a6;" vertex="1" parent="yGx-_mgUBLTscShHxS1o-29">
          <mxGeometry x="350" y="125" width="30" height="180" as="geometry" />
        </mxCell>
        <mxCell id="yGx-_mgUBLTscShHxS1o-4" value="" style="shape=cube;whiteSpace=wrap;html=1;boundedLbl=1;backgroundOutline=1;darkOpacity=0.05;darkOpacity2=0.1;flipH=1;size=10;fillColor=#f5f5f5;fontColor=#333333;strokeColor=#666666;" vertex="1" parent="yGx-_mgUBLTscShHxS1o-29">
          <mxGeometry x="440" y="147.5" width="30" height="135" as="geometry" />
        </mxCell>
        <mxCell id="yGx-_mgUBLTscShHxS1o-5" value="" style="edgeStyle=orthogonalEdgeStyle;html=1;endArrow=block;elbow=vertical;startArrow=none;endFill=1;strokeColor=#545B64;rounded=0;" edge="1" parent="yGx-_mgUBLTscShHxS1o-29">
          <mxGeometry width="100" relative="1" as="geometry">
            <mxPoint x="200" y="210" as="sourcePoint" />
            <mxPoint x="260" y="210" as="targetPoint" />
          </mxGeometry>
        </mxCell>
        <mxCell id="yGx-_mgUBLTscShHxS1o-6" value="" style="edgeStyle=orthogonalEdgeStyle;html=1;endArrow=block;elbow=vertical;startArrow=none;endFill=1;strokeColor=#545B64;rounded=0;" edge="1" parent="yGx-_mgUBLTscShHxS1o-29">
          <mxGeometry width="100" relative="1" as="geometry">
            <mxPoint x="290" y="210" as="sourcePoint" />
            <mxPoint x="350" y="210" as="targetPoint" />
          </mxGeometry>
        </mxCell>
        <mxCell id="yGx-_mgUBLTscShHxS1o-7" value="" style="edgeStyle=orthogonalEdgeStyle;html=1;endArrow=block;elbow=vertical;startArrow=none;endFill=1;strokeColor=#545B64;rounded=0;" edge="1" parent="yGx-_mgUBLTscShHxS1o-29">
          <mxGeometry width="100" relative="1" as="geometry">
            <mxPoint x="380" y="210" as="sourcePoint" />
            <mxPoint x="440" y="210" as="targetPoint" />
          </mxGeometry>
        </mxCell>
        <mxCell id="yGx-_mgUBLTscShHxS1o-14" value="" style="edgeStyle=orthogonalEdgeStyle;html=1;endArrow=block;elbow=vertical;startArrow=none;endFill=1;strokeColor=#545B64;rounded=0;" edge="1" parent="yGx-_mgUBLTscShHxS1o-29">
          <mxGeometry width="100" relative="1" as="geometry">
            <mxPoint x="110" y="210" as="sourcePoint" />
            <mxPoint x="170" y="210" as="targetPoint" />
          </mxGeometry>
        </mxCell>
        <mxCell id="yGx-_mgUBLTscShHxS1o-15" value="28" style="text;html=1;strokeColor=none;fillColor=none;align=center;verticalAlign=middle;whiteSpace=wrap;rounded=0;" vertex="1" parent="yGx-_mgUBLTscShHxS1o-29">
          <mxGeometry x="90" y="350" width="30" height="20" as="geometry" />
        </mxCell>
        <mxCell id="yGx-_mgUBLTscShHxS1o-16" value="28" style="text;html=1;strokeColor=none;fillColor=none;align=center;verticalAlign=middle;whiteSpace=wrap;rounded=0;" vertex="1" parent="yGx-_mgUBLTscShHxS1o-29">
          <mxGeometry y="230" width="30" height="20" as="geometry" />
        </mxCell>
        <mxCell id="yGx-_mgUBLTscShHxS1o-17" value="28 x 28" style="text;html=1;strokeColor=none;fillColor=none;align=center;verticalAlign=middle;whiteSpace=wrap;rounded=0;" vertex="1" parent="yGx-_mgUBLTscShHxS1o-29">
          <mxGeometry x="160" y="440" width="50" height="20" as="geometry" />
        </mxCell>
        <mxCell id="yGx-_mgUBLTscShHxS1o-18" value="16" style="text;html=1;strokeColor=none;fillColor=none;align=center;verticalAlign=middle;whiteSpace=wrap;rounded=0;" vertex="1" parent="yGx-_mgUBLTscShHxS1o-29">
          <mxGeometry x="260" y="320" width="30" height="20" as="geometry" />
        </mxCell>
        <mxCell id="yGx-_mgUBLTscShHxS1o-19" value="16" style="text;html=1;strokeColor=none;fillColor=none;align=center;verticalAlign=middle;whiteSpace=wrap;rounded=0;" vertex="1" parent="yGx-_mgUBLTscShHxS1o-29">
          <mxGeometry x="350" y="320" width="30" height="20" as="geometry" />
        </mxCell>
        <mxCell id="yGx-_mgUBLTscShHxS1o-20" value="10" style="text;html=1;strokeColor=none;fillColor=none;align=center;verticalAlign=middle;whiteSpace=wrap;rounded=0;" vertex="1" parent="yGx-_mgUBLTscShHxS1o-29">
          <mxGeometry x="440" y="300" width="30" height="20" as="geometry" />
        </mxCell>
        <mxCell id="yGx-_mgUBLTscShHxS1o-21" value="" style="shape=cube;whiteSpace=wrap;html=1;boundedLbl=1;backgroundOutline=1;darkOpacity=0.05;darkOpacity2=0.1;flipH=1;size=0;fillColor=#ffe6cc;strokeColor=#d79b00;fillStyle=hatch;strokeWidth=2;" vertex="1" parent="yGx-_mgUBLTscShHxS1o-29">
          <mxGeometry x="510" y="270" width="30" height="30" as="geometry" />
        </mxCell>
        <mxCell id="yGx-_mgUBLTscShHxS1o-22" value="" style="shape=cube;whiteSpace=wrap;html=1;boundedLbl=1;backgroundOutline=1;darkOpacity=0.05;darkOpacity2=0.1;flipH=1;size=10;fillColor=#d5e8d4;strokeColor=#82b366;" vertex="1" parent="yGx-_mgUBLTscShHxS1o-29">
          <mxGeometry x="510" y="320" width="30" height="30" as="geometry" />
        </mxCell>
        <mxCell id="yGx-_mgUBLTscShHxS1o-23" value="" style="shape=cube;whiteSpace=wrap;html=1;boundedLbl=1;backgroundOutline=1;darkOpacity=0.05;darkOpacity2=0.1;flipH=1;size=10;fillColor=#e1d5e7;strokeColor=#9673a6;" vertex="1" parent="yGx-_mgUBLTscShHxS1o-29">
          <mxGeometry x="510" y="370" width="30" height="30" as="geometry" />
        </mxCell>
        <mxCell id="yGx-_mgUBLTscShHxS1o-24" value="" style="shape=cube;whiteSpace=wrap;html=1;boundedLbl=1;backgroundOutline=1;darkOpacity=0.05;darkOpacity2=0.1;flipH=1;size=10;fillColor=#f5f5f5;strokeColor=#666666;fontColor=#333333;" vertex="1" parent="yGx-_mgUBLTscShHxS1o-29">
          <mxGeometry x="510" y="420" width="30" height="30" as="geometry" />
        </mxCell>
        <mxCell id="yGx-_mgUBLTscShHxS1o-25" value="Input image" style="text;html=1;strokeColor=none;fillColor=none;align=left;verticalAlign=middle;whiteSpace=wrap;rounded=0;" vertex="1" parent="yGx-_mgUBLTscShHxS1o-29">
          <mxGeometry x="550" y="270" width="70" height="30" as="geometry" />
        </mxCell>
        <mxCell id="yGx-_mgUBLTscShHxS1o-26" value="Flatten" style="text;html=1;strokeColor=none;fillColor=none;align=left;verticalAlign=middle;whiteSpace=wrap;rounded=0;" vertex="1" parent="yGx-_mgUBLTscShHxS1o-29">
          <mxGeometry x="550" y="320" width="70" height="30" as="geometry" />
        </mxCell>
        <mxCell id="yGx-_mgUBLTscShHxS1o-27" value="Linear layer&lt;br&gt;+ ReLU" style="text;html=1;strokeColor=none;fillColor=none;align=left;verticalAlign=middle;whiteSpace=wrap;rounded=0;" vertex="1" parent="yGx-_mgUBLTscShHxS1o-29">
          <mxGeometry x="550" y="367" width="80" height="30" as="geometry" />
        </mxCell>
        <mxCell id="yGx-_mgUBLTscShHxS1o-28" value="Output layer" style="text;html=1;strokeColor=none;fillColor=none;align=left;verticalAlign=middle;whiteSpace=wrap;rounded=0;" vertex="1" parent="yGx-_mgUBLTscShHxS1o-29">
          <mxGeometry x="550" y="420" width="70" height="30" as="geometry" />
        </mxCell>
      </root>
    </mxGraphModel>
  </diagram>
</mxfile>
